<?xml version="1.0" encoding="UTF-8" standalone="no"?>
<!DOCTYPE svg PUBLIC "-//W3C//DTD SVG 1.1//EN" "http://www.w3.org/Graphics/SVG/1.1/DTD/svg11.dtd">
<svg width="100%" height="100%" viewBox="0 0 2683 341" version="1.1" xmlns="http://www.w3.org/2000/svg" xmlns:xlink="http://www.w3.org/1999/xlink" xml:space="preserve" xmlns:serif="http://www.serif.com/" style="fill-rule:evenodd;clip-rule:evenodd;stroke-linejoin:round;stroke-miterlimit:2;">
    <g transform="matrix(1,0,0,1,-574.19,-775.963)">
        <path d="M872.827,1111.39L799.721,1111.39L780.13,1057.4L666.887,1057.4L646.819,1111.39L574.19,1111.39L699.857,798.421L746.683,798.421L872.827,1111.39ZM761.017,1004.84L731.87,925.999C728.685,917.398 725.977,907.045 723.748,894.94C722.792,900.674 720.084,911.027 715.625,925.999L686,1004.84L761.017,1004.84Z" style="fill-rule:nonzero;"/>
        <path d="M960.746,1111.39L893.851,1111.39L893.851,785.998L960.746,775.963L960.746,1111.39Z" style="fill-rule:nonzero;"/>
        <path d="M1080.2,816.1C1080.2,825.975 1076.7,834.417 1069.69,841.425C1062.68,848.433 1054.24,851.937 1044.36,851.937C1034.49,851.937 1026.05,848.433 1019.04,841.425C1012.03,834.417 1008.53,825.975 1008.53,816.1C1008.53,806.225 1012.03,797.784 1019.04,790.776C1026.05,783.768 1034.49,780.264 1044.36,780.264C1054.24,780.264 1062.68,783.768 1069.69,790.776C1076.7,797.784 1080.2,806.225 1080.2,816.1ZM1077.81,1111.39L1010.92,1111.39L1010.92,876.783L1077.81,876.783L1077.81,1111.39Z" style="fill-rule:nonzero;"/>
        <path d="M1336.79,967.091L1336.79,1111.39L1269.89,1111.39L1269.89,968.047C1269.89,942.882 1258.9,930.299 1236.93,930.299C1225.46,930.299 1215.58,934.042 1207.3,941.528C1199.02,949.014 1194.88,958.809 1194.88,970.914L1194.88,1111.39L1127.98,1111.39L1127.98,876.783L1175.29,876.783L1182.93,898.763C1201.09,881.243 1222.91,872.483 1248.39,872.483C1273.56,872.483 1294.42,880.765 1310.99,897.33C1328.19,914.85 1336.79,938.103 1336.79,967.091Z" style="fill-rule:nonzero;"/>
        <path d="M1842.32,1111.39L1775.43,1111.39L1753.45,954.668C1752.17,946.386 1750.9,930.936 1749.63,908.319C1747.4,919.469 1743.57,934.918 1738.16,954.668L1685.12,1111.39L1640.2,1111.39L1586.21,954.668C1583.35,946.704 1579.52,931.255 1574.74,908.319C1574.11,919.15 1572.83,934.599 1570.92,954.668L1549.42,1111.39L1482.53,1111.39L1535.09,798.421L1586.21,798.421L1652.15,989.549C1655.02,997.512 1658.36,1009.62 1662.18,1025.86C1664.1,1018.22 1667.6,1006.11 1672.7,989.549L1738.16,798.421L1789.76,798.421L1842.32,1111.39Z" style="fill-rule:nonzero;"/>
        <path d="M2068.81,941.289L2068.81,1111.39L2021.51,1111.39L2013.86,1090.37C1995.38,1107.25 1973.72,1115.69 1948.88,1115.69C1923.71,1115.69 1903.48,1108.92 1888.19,1095.39C1872.9,1081.85 1865.26,1063.77 1865.26,1041.15L1865.26,1034.46C1865.26,1015.35 1872.35,999.901 1886.52,988.115C1900.7,976.329 1919.73,970.436 1943.62,970.436L2006.22,970.436L2006.22,950.368C2006.22,936.033 1999.05,928.866 1984.71,928.866C1982.8,928.866 1981.21,929.025 1979.93,929.343L1897.27,938.9L1889.63,883.951L1989.49,872.483C1992.36,872.164 1995.86,872.005 2000,872.005C2020.71,872.005 2037.35,878.217 2049.93,890.64C2062.52,903.063 2068.81,919.946 2068.81,941.289ZM2006.22,1021.56L2006.22,1014.39L1954.93,1014.39C1938.15,1014.39 1929.76,1021.56 1929.76,1035.9L1929.76,1041.15C1929.76,1056.76 1939.1,1064.57 1957.78,1064.57C1970.76,1064.57 1982.08,1060.42 1991.73,1052.14C2001.39,1043.86 2006.22,1033.67 2006.22,1021.56Z" style="fill-rule:nonzero;"/>
        <path d="M2261.85,876.783L2244.65,939.855C2241.46,938.9 2238.43,937.785 2235.57,936.511C2229.52,934.599 2224.26,933.644 2219.8,933.644C2209.29,933.644 2200.69,936.989 2194,943.678C2186.35,951.005 2182.53,961.039 2182.53,973.781L2182.53,1111.39L2115.64,1111.39L2115.64,876.783L2162.46,876.783L2170.11,897.807C2187.63,880.924 2209.13,872.483 2234.61,872.483C2243.85,872.483 2252.93,873.916 2261.85,876.783Z" style="fill-rule:nonzero;"/>
        <path d="M2426.22,1103.27L2401.85,1110.91C2391.66,1114.1 2380.19,1115.69 2367.45,1115.69C2347.7,1115.69 2331.77,1110.28 2319.66,1099.45C2305.97,1087.34 2299.12,1070.3 2299.12,1048.32L2299.12,932.688L2265.19,932.688L2265.19,876.783L2299.12,876.783L2299.12,832.13L2366.01,795.554L2366.01,876.783L2420.48,876.783L2408.54,932.688L2366.01,932.688L2366.01,1042.64C2366.01,1051.52 2370.31,1055.97 2378.91,1055.97C2380.83,1055.97 2384.33,1055.38 2389.43,1054.2L2407.11,1050.23L2426.22,1103.27Z" style="fill-rule:nonzero;"/>
        <path d="M2523.22,816.1C2523.22,825.975 2519.71,834.417 2512.7,841.425C2505.7,848.433 2497.25,851.937 2487.38,851.937C2477.5,851.937 2469.06,848.433 2462.05,841.425C2455.05,834.417 2451.54,825.975 2451.54,816.1C2451.54,806.225 2455.05,797.784 2462.05,790.776C2469.06,783.768 2477.5,780.264 2487.38,780.264C2497.25,780.264 2505.7,783.768 2512.7,790.776C2519.71,797.784 2523.22,806.225 2523.22,816.1ZM2520.83,1111.39L2453.93,1111.39L2453.93,876.783L2520.83,876.783L2520.83,1111.39Z" style="fill-rule:nonzero;"/>
        <path d="M2779.8,967.091L2779.8,1111.39L2712.91,1111.39L2712.91,968.047C2712.91,942.882 2701.92,930.299 2679.94,930.299C2668.47,930.299 2658.6,934.042 2650.32,941.528C2642.03,949.014 2637.89,958.809 2637.89,970.914L2637.89,1111.39L2571,1111.39L2571,876.783L2618.3,876.783L2625.95,898.763C2644.1,881.243 2665.92,872.483 2691.41,872.483C2716.57,872.483 2737.44,880.765 2754,897.33C2771.2,914.85 2779.8,938.103 2779.8,967.091Z" style="fill-rule:nonzero;"/>
        <path d="M3033.05,1009.62L2887.31,1009.62C2887.31,1023.95 2892.01,1035.74 2901.41,1044.98C2910.81,1054.21 2922.67,1058.83 2937.01,1058.83C2941.15,1058.83 2944.81,1058.51 2948,1057.88L3012.03,1044.98L3024.45,1100.4L2953.73,1114.26C2945.45,1115.85 2938.44,1116.65 2932.71,1116.65C2901.81,1116.65 2875.45,1106.22 2853.63,1085.35C2831.81,1064.49 2820.9,1038.45 2820.9,1007.23L2820.9,979.037C2820.9,946.545 2831.49,920.583 2852.67,901.152C2873.86,881.721 2901.33,872.005 2935.1,872.005C2964.4,872.005 2988.05,880.282 3006.05,896.837C3024.05,913.391 3033.05,936.332 3033.05,965.658L3033.05,1009.62ZM2973.8,965.658L2973.8,959.446C2973.8,948.934 2970.38,940.493 2963.53,934.122C2956.68,927.751 2947.36,924.565 2935.57,924.565C2921.88,924.565 2910.81,928.388 2902.37,936.033C2893.92,943.678 2889.07,953.553 2887.79,965.658L2973.8,965.658Z" style="fill-rule:nonzero;"/>
        <path d="M3256.67,1111.39L3066.97,1111.39L3066.97,1084.63L3160.63,932.688L3071.75,932.688L3071.75,876.783L3250.46,876.783L3250.46,900.196L3155.37,1055.01L3248.07,1055.01L3256.67,1111.39Z" style="fill-rule:nonzero;"/>
    </g>
</svg>
